<?xml version="1.0" encoding="UTF-8"?>
<svg xmlns="http://www.w3.org/2000/svg" viewBox="0 0 20 20" width="20px" height="20px">
<g id="surface9248728">
<path style=" stroke:none;fill-rule:nonzero;fill:rgb(18.431373%,48.235294%,70.980394%);fill-opacity:1;" d="M 10 0.914062 C 4.980469 0.914062 0.914062 4.980469 0.914062 10 C 0.914062 15.019531 4.980469 19.085938 10 19.085938 C 15.019531 19.085938 19.085938 15.019531 19.085938 10 C 19.085938 4.980469 15.019531 0.914062 10 0.914062 Z M 11.894531 14.996094 C 11.425781 15.179688 11.050781 15.320312 10.773438 15.417969 C 10.492188 15.515625 10.171875 15.5625 9.800781 15.5625 C 9.238281 15.5625 8.796875 15.421875 8.480469 15.148438 C 8.167969 14.875 8.011719 14.523438 8.011719 14.09375 C 8.011719 13.929688 8.023438 13.761719 8.046875 13.589844 C 8.066406 13.417969 8.105469 13.222656 8.15625 13.003906 L 8.742188 10.9375 C 8.796875 10.738281 8.839844 10.554688 8.875 10.375 C 8.914062 10.199219 8.925781 10.035156 8.925781 9.890625 C 8.925781 9.628906 8.875 9.441406 8.765625 9.339844 C 8.652344 9.234375 8.445312 9.183594 8.140625 9.183594 C 7.988281 9.183594 7.832031 9.207031 7.675781 9.25 C 7.515625 9.300781 7.378906 9.34375 7.265625 9.386719 L 7.421875 8.75 C 7.804688 8.59375 8.171875 8.460938 8.523438 8.351562 C 8.871094 8.238281 9.203125 8.183594 9.511719 8.183594 C 10.074219 8.183594 10.511719 8.320312 10.8125 8.589844 C 11.117188 8.859375 11.269531 9.214844 11.269531 9.648438 C 11.269531 9.738281 11.261719 9.898438 11.242188 10.125 C 11.21875 10.347656 11.179688 10.554688 11.125 10.75 L 10.539062 12.808594 C 10.492188 12.976562 10.449219 13.164062 10.410156 13.375 C 10.375 13.585938 10.359375 13.746094 10.359375 13.855469 C 10.359375 14.128906 10.417969 14.316406 10.539062 14.417969 C 10.660156 14.515625 10.875 14.5625 11.179688 14.5625 C 11.320312 14.5625 11.476562 14.539062 11.660156 14.492188 C 11.835938 14.441406 11.964844 14.398438 12.046875 14.359375 Z M 11.789062 6.628906 C 11.515625 6.882812 11.191406 7.007812 10.808594 7.007812 C 10.425781 7.007812 10.097656 6.882812 9.824219 6.628906 C 9.550781 6.375 9.414062 6.070312 9.414062 5.710938 C 9.414062 5.355469 9.550781 5.046875 9.824219 4.789062 C 10.097656 4.535156 10.425781 4.40625 10.808594 4.40625 C 11.191406 4.40625 11.515625 4.535156 11.789062 4.789062 C 12.0625 5.046875 12.195312 5.355469 12.195312 5.710938 C 12.195312 6.070312 12.0625 6.375 11.789062 6.628906 Z M 11.789062 6.628906 "/>
</g>
</svg>
